<mxfile host="app.diagrams.net" modified="2024-05-11T10:17:41.093Z" agent="Mozilla/5.0 (Windows NT 10.0; Win64; x64) AppleWebKit/537.36 (KHTML, like Gecko) Chrome/122.0.0.0 Safari/537.36" etag="RB_PAIu64JyJHEDo06BN" version="24.3.1" type="device">
  <diagram name="Trang-1" id="QNzVlXSFIeCX4YH0qs5_">
    <mxGraphModel dx="708" dy="390" grid="1" gridSize="10" guides="1" tooltips="1" connect="1" arrows="1" fold="1" page="1" pageScale="1" pageWidth="827" pageHeight="1169" math="0" shadow="0">
      <root>
        <mxCell id="0" />
        <mxCell id="1" parent="0" />
        <mxCell id="c9gM8OAT63Zr5gqA5FnM-1" value="GIẢI THUẬT HỆ THỐNG&lt;div&gt;1.&amp;nbsp;&lt;/div&gt;" style="text;html=1;align=center;verticalAlign=middle;whiteSpace=wrap;rounded=0;" vertex="1" parent="1">
          <mxGeometry x="200" y="130" width="290" height="30" as="geometry" />
        </mxCell>
        <mxCell id="c9gM8OAT63Zr5gqA5FnM-2" value="ADC IN &amp;gt; 17.6v&lt;div&gt;==&amp;gt; BUCK_EN&lt;/div&gt;" style="text;html=1;align=center;verticalAlign=middle;whiteSpace=wrap;rounded=0;" vertex="1" parent="1">
          <mxGeometry x="340" y="270" width="230" height="30" as="geometry" />
        </mxCell>
      </root>
    </mxGraphModel>
  </diagram>
</mxfile>
